<?xml version="1.0" encoding="utf-8"?>
<!DOCTYPE svg PUBLIC "-//W3C//DTD SVG 1.1//EN" "http://www.w3.org/Graphics/SVG/1.1/DTD/svg11.dtd">
              <svg version="1.1" id="peatix-logo" xmlns="http://www.w3.org/2000/svg" xmlns:xlink="http://www.w3.org/1999/xlink" viewBox="0 0 201 43.8" enable-background="new 0 0 201 43.8" xml:space="preserve">
                <g>
                  <path fill="#5B5957" d="M156.8,34.8c-0.1-0.2-0.3-0.4-0.6-0.3l0,0c-0.5,0.2-2.1,1.1-3.6,1.1c-2.8,0-3.2-2.3-3.2-5V19.5h7.6
                    c0.2,0,0.3-0.2,0.3-0.4v-5.4c0-0.2-0.2-0.4-0.4-0.4h-7.8V4.3c0-0.1-0.1-0.3-0.3-0.3l-7.1,1.5v7.7h-4.1c-0.2,0-0.4,0.2-0.4,0.4v5.4
                    c0,0.2,0.2,0.4,0.4,0.4h3.4v12c0,0-1.1,11.1,9.3,11.1c0,0,3.6-0.3,6.2-1.2L156.8,34.8z"/>
                  <path fill="#5B5957" d="M63.9,2.4c5.6,0,9.9,1,13,3.1c3,2.1,4.5,5.4,4.5,10.1s-1.5,8.2-4.6,10.3c-3,2.1-7.4,3.2-13.1,3.2H61v12.6
                    h-8.5V3.4c1.9-0.4,3.8-0.6,5.9-0.8C60.5,2.5,62.3,2.4,63.9,2.4z M64.4,9.9c-0.6,0-1.2,0-1.8,0.1C62,9.9,61.5,10,61,10v11.4h2.7
                    c2.9,0,5.2-0.4,6.6-1.3c1.5-0.8,2.2-2.4,2.2-4.7c0-1.1-0.2-2-0.6-2.7c-0.4-0.7-0.9-1.3-1.6-1.7c-0.7-0.4-1.6-0.7-2.6-0.9
                    C66.8,10,65.6,9.9,64.4,9.9z"/>
                  <path fill="#5B5957" d="M201,41.6c0.1,0.1,0,0.3-0.1,0.3h-7.5c-0.2,0-0.4-0.1-0.5-0.3l-5.3-8c-0.1-0.1-0.3-0.1-0.4,0l-5.3,8
                    c-0.1,0.1-0.3,0.3-0.5,0.3h-7c-0.2,0-0.2-0.1-0.1-0.3l9.1-13.9c0.1-0.1,0.1-0.4,0-0.5l-9-13.7c-0.1-0.1,0-0.3,0.1-0.3h7.5
                    c0.2,0,0.4,0.1,0.5,0.3l4.9,7.5c0.1,0.1,0.3,0.1,0.3,0l4.9-7.5c0.1-0.1,0.3-0.3,0.5-0.3h7.2c0.2,0,0.2,0.1,0.1,0.3l-8.9,13.4
                    c-0.1,0.1-0.1,0.4,0,0.5L201,41.6z"/>
                  <path fill="#5B5957" d="M169.3,1.9c-0.9-0.8-1.9-1.2-3.1-1.2c-1.2,0-2.2,0.4-3.1,1.2c-0.9,0.8-1.3,1.9-1.3,3.2
                    c0,1.4,0.4,2.4,1.3,3.2s1.9,1.2,3.1,1.2c1.2,0,2.2-0.4,3.1-1.2c0.9-0.8,1.3-1.9,1.3-3.2S170.2,2.7,169.3,1.9z"/>
                  <path fill="#5B5957" d="M162.5,13.2c-0.2,0-0.3,0.1-0.3,0.3v28c0,0.2,0.1,0.3,0.3,0.3h7.5c0.2,0,0.3-0.1,0.3-0.3V13.5
                    c0-0.2-0.1-0.3-0.3-0.3L162.5,13.2L162.5,13.2z"/>
                  <path fill="#5B5957" d="M108.5,23.7c0-6.9-5.6-11.4-12.4-11.4c-7.5,0-13.6,5.8-13.6,15.3c0,11.6,8.1,14.9,15,14.9
                    c1.6,0,6.4-0.6,9.1-1.6c0,0,0-5.6,0-6.1c0-0.4-0.3-0.6-0.7-0.5c-1.9,0.6-4.3,1.2-7.3,1.2c-5.7,0-7.8-2.6-7.8-4.8c0,0,6.2,0,11.3,0
                    C107.1,30.7,108.5,26.8,108.5,23.7z M96.4,18.8c2.2,0,4.1,1.1,5,3.7c0,0.2,0,0.4,0,0.5c0,0.8-0.6,1.4-1.6,1.5h-9.1
                    C91.2,20.7,93.7,18.8,96.4,18.8z"/>
                  <path fill="#5B5957" d="M122.8,12.4c-4.6,0-9,1.2-9.5,1.4c0,0,0,5.1,0,5.9s0.6,0.8,1,0.7c1.9-0.6,4.2-1.1,7.6-1.1
                    c4.3-0.1,5.6,2.1,5.6,4.6v0.8c-0.6-0.2-2-0.5-4.8-0.5c-5.9,0-12,2.1-12,9c0,4.7,2.2,9.4,12.2,9.4c1.2,0,5.4-0.2,5.4-0.2
                    c5.1,0,6.9-3.9,6.9-7l0,0V24.2C135.3,16,131.5,12.4,122.8,12.4z M118.2,32.9c0-2.9,3.6-3.2,5.8-3.2c1.2,0,2.8,0.2,3.6,0.6v4.5
                    v-0.4c0,0.8-0.5,1.4-1.6,1.5c-1.2,0.1-2.3,0.1-2.8,0.1C118.8,36.1,118.2,34.7,118.2,32.9z"/>
                </g>
                <g>
                  <g>
                    <g>
                      <path fill="#6DBD46" d="M14.6,0.4c-0.2,0.1-0.3,0.3-0.3,0.6c0,0.3,0.2,0.6,0.5,0.6l0.9,0.2c0.3,0.1,0.5,0.3,0.5,0.6
                        c0,0.3-0.2,0.5-0.3,0.5C13.2,4.6,0.8,8.1,1,23.6c0.1,8.7,6.1,16.8,11.8,19.1c1.6,0.7,3,0.4,3-0.1c0-0.3-0.7-1.4-0.7-1.4
                        c-2.2-3.7-4.4-8.8-5.1-15.5c-0.4-3.9-1.4-14.9,13.1-15c7,0,13.1,4.6,12.4,13.3c-0.6,6.6-5.6,11-13.4,11.4
                        c-0.9,0.1-1.7,0.9-1.3,2c0.6,1.7,2.3,7,6,6.3c9.6-2.3,17-9.9,16.9-20.3C43.5,8.6,30.4-0.1,17.6,0C15.1,0.1,14.6,0.4,14.6,0.4z"
                        />
                      <path fill="#57AB48" d="M41.1,24.6C41,14.1,32.3,5.7,21.6,5.9C11,6,3.3,14.5,3.4,25.5c0.1,5.5,3.4,12.9,8.8,16.4
                        c0.3,0.2,3.2,1.4,3.4,0.7c-0.1-0.4-0.6-1.4-0.6-1.4c-2.2-3.7-4.4-8.8-5.1-15.5c-0.4-3.9-1.4-14.9,13.1-15
                        c7,0,13.1,4.6,12.4,13.3c-0.6,6.6-5.6,11-13.4,11.4c-0.9,0.1-1.7,0.9-1.3,2c0.4,1.2,1.4,4,3.1,5.5c0.6,0.6,2.2,0.3,2.8,0.2
                        C34.7,40.9,41.2,33.4,41.1,24.6z"/>
                    </g>
                  </g>
                  <path fill="#57AB48" d="M20.2,29c6-0.4,7.8-3.5,8-6.1c0.2-2.8-2-6.7-6.1-6.2c-5.9,0.8-5.7,5-5.5,6.7c0.1,1.3,0.4,2.4,0.7,3.4
                    C17.8,27.9,18.8,29.1,20.2,29z"/>
                </g>
                </svg>
